<mxfile host="Electron" modified="2024-05-30T11:36:43.550Z" agent="Mozilla/5.0 (Windows NT 10.0; Win64; x64) AppleWebKit/537.36 (KHTML, like Gecko) draw.io/24.4.8 Chrome/124.0.6367.207 Electron/30.0.6 Safari/537.36" etag="jyLlExFc5MVSVqsQviCZ" version="24.4.8" type="device">
  <diagram name="Flowchart CDAC Project" id="3H7VCfTwJGcNsvzC-saa">
    <mxGraphModel dx="1036" dy="614" grid="1" gridSize="10" guides="1" tooltips="1" connect="1" arrows="1" fold="1" page="1" pageScale="1" pageWidth="827" pageHeight="1169" math="0" shadow="0">
      <root>
        <mxCell id="0" />
        <mxCell id="1" parent="0" />
        <mxCell id="c5Ohos4aBFcbHTDep5dI-3" value="" style="edgeStyle=orthogonalEdgeStyle;rounded=0;orthogonalLoop=1;jettySize=auto;html=1;" parent="1" source="c5Ohos4aBFcbHTDep5dI-1" target="c5Ohos4aBFcbHTDep5dI-2" edge="1">
          <mxGeometry relative="1" as="geometry" />
        </mxCell>
        <mxCell id="c5Ohos4aBFcbHTDep5dI-1" value="&lt;b&gt;&lt;font style=&quot;font-size: 15px;&quot;&gt;E-Commerce Sites&lt;/font&gt;&lt;/b&gt;" style="rounded=0;whiteSpace=wrap;html=1;" parent="1" vertex="1">
          <mxGeometry x="40" y="40" width="120" height="60" as="geometry" />
        </mxCell>
        <mxCell id="c5Ohos4aBFcbHTDep5dI-2" value="&lt;b&gt;&lt;font style=&quot;font-size: 15px;&quot;&gt;Data Collection&lt;/font&gt;&lt;/b&gt;" style="whiteSpace=wrap;html=1;rounded=0;" parent="1" vertex="1">
          <mxGeometry x="40" y="180" width="120" height="60" as="geometry" />
        </mxCell>
        <mxCell id="c5Ohos4aBFcbHTDep5dI-4" value="" style="endArrow=none;html=1;rounded=0;entryX=0.5;entryY=1;entryDx=0;entryDy=0;" parent="1" edge="1">
          <mxGeometry width="50" height="50" relative="1" as="geometry">
            <mxPoint x="50" y="370" as="sourcePoint" />
            <mxPoint x="50" y="240" as="targetPoint" />
            <Array as="points">
              <mxPoint x="50" y="720" />
            </Array>
          </mxGeometry>
        </mxCell>
        <mxCell id="c5Ohos4aBFcbHTDep5dI-5" value="" style="endArrow=classic;html=1;rounded=0;" parent="1" edge="1">
          <mxGeometry width="50" height="50" relative="1" as="geometry">
            <mxPoint x="50" y="282.5" as="sourcePoint" />
            <mxPoint x="110" y="282.5" as="targetPoint" />
            <Array as="points">
              <mxPoint x="110" y="282.5" />
            </Array>
          </mxGeometry>
        </mxCell>
        <mxCell id="c5Ohos4aBFcbHTDep5dI-6" value="" style="endArrow=classic;html=1;rounded=0;" parent="1" edge="1">
          <mxGeometry width="50" height="50" relative="1" as="geometry">
            <mxPoint x="50" y="322.5" as="sourcePoint" />
            <mxPoint x="110" y="322.5" as="targetPoint" />
            <Array as="points">
              <mxPoint x="110" y="322.5" />
            </Array>
          </mxGeometry>
        </mxCell>
        <mxCell id="c5Ohos4aBFcbHTDep5dI-7" value="" style="endArrow=classic;html=1;rounded=0;" parent="1" edge="1">
          <mxGeometry width="50" height="50" relative="1" as="geometry">
            <mxPoint x="50" y="362.5" as="sourcePoint" />
            <mxPoint x="110" y="362.5" as="targetPoint" />
            <Array as="points">
              <mxPoint x="110" y="362.5" />
            </Array>
          </mxGeometry>
        </mxCell>
        <mxCell id="c5Ohos4aBFcbHTDep5dI-8" value="" style="endArrow=classic;html=1;rounded=0;" parent="1" edge="1">
          <mxGeometry width="50" height="50" relative="1" as="geometry">
            <mxPoint x="50" y="400" as="sourcePoint" />
            <mxPoint x="110" y="400" as="targetPoint" />
            <Array as="points">
              <mxPoint x="110" y="400" />
            </Array>
          </mxGeometry>
        </mxCell>
        <mxCell id="c5Ohos4aBFcbHTDep5dI-9" value="" style="endArrow=classic;html=1;rounded=0;" parent="1" edge="1">
          <mxGeometry width="50" height="50" relative="1" as="geometry">
            <mxPoint x="50" y="442.5" as="sourcePoint" />
            <mxPoint x="110" y="442.5" as="targetPoint" />
            <Array as="points">
              <mxPoint x="110" y="442.5" />
            </Array>
          </mxGeometry>
        </mxCell>
        <mxCell id="c5Ohos4aBFcbHTDep5dI-10" value="" style="endArrow=classic;html=1;rounded=0;" parent="1" edge="1">
          <mxGeometry width="50" height="50" relative="1" as="geometry">
            <mxPoint x="50" y="478" as="sourcePoint" />
            <mxPoint x="110" y="478" as="targetPoint" />
            <Array as="points">
              <mxPoint x="110" y="478" />
            </Array>
          </mxGeometry>
        </mxCell>
        <mxCell id="c5Ohos4aBFcbHTDep5dI-11" value="" style="endArrow=classic;html=1;rounded=0;" parent="1" edge="1">
          <mxGeometry width="50" height="50" relative="1" as="geometry">
            <mxPoint x="50" y="520" as="sourcePoint" />
            <mxPoint x="110" y="520" as="targetPoint" />
            <Array as="points">
              <mxPoint x="110" y="520" />
            </Array>
          </mxGeometry>
        </mxCell>
        <mxCell id="c5Ohos4aBFcbHTDep5dI-12" value="&lt;i&gt;&lt;b&gt;&lt;font style=&quot;font-size: 15px;&quot;&gt;Customer ID&lt;/font&gt;&lt;/b&gt;&lt;/i&gt;" style="text;html=1;align=center;verticalAlign=middle;resizable=0;points=[];autosize=1;strokeColor=none;fillColor=none;" parent="1" vertex="1">
          <mxGeometry x="120" y="270" width="110" height="30" as="geometry" />
        </mxCell>
        <mxCell id="c5Ohos4aBFcbHTDep5dI-13" value="&lt;b&gt;&lt;i&gt;&lt;font style=&quot;font-size: 15px;&quot;&gt;Purchase Date&lt;/font&gt;&lt;/i&gt;&lt;/b&gt;" style="text;html=1;align=center;verticalAlign=middle;resizable=0;points=[];autosize=1;strokeColor=none;fillColor=none;" parent="1" vertex="1">
          <mxGeometry x="120" y="310" width="130" height="30" as="geometry" />
        </mxCell>
        <mxCell id="c5Ohos4aBFcbHTDep5dI-14" value="&lt;b&gt;&lt;i&gt;&lt;font style=&quot;font-size: 15px;&quot;&gt;Product Category&lt;/font&gt;&lt;/i&gt;&lt;/b&gt;" style="text;html=1;align=center;verticalAlign=middle;resizable=0;points=[];autosize=1;strokeColor=none;fillColor=none;" parent="1" vertex="1">
          <mxGeometry x="120" y="350" width="150" height="30" as="geometry" />
        </mxCell>
        <mxCell id="c5Ohos4aBFcbHTDep5dI-15" value="&lt;b&gt;&lt;i&gt;&lt;font style=&quot;font-size: 15px;&quot;&gt;Product Price&lt;/font&gt;&lt;/i&gt;&lt;/b&gt;" style="text;html=1;align=center;verticalAlign=middle;resizable=0;points=[];autosize=1;strokeColor=none;fillColor=none;" parent="1" vertex="1">
          <mxGeometry x="120" y="390" width="120" height="30" as="geometry" />
        </mxCell>
        <mxCell id="c5Ohos4aBFcbHTDep5dI-16" value="&lt;b&gt;&lt;i&gt;&lt;font style=&quot;font-size: 15px;&quot;&gt;Quantity&lt;/font&gt;&lt;/i&gt;&lt;/b&gt;" style="text;html=1;align=center;verticalAlign=middle;resizable=0;points=[];autosize=1;strokeColor=none;fillColor=none;" parent="1" vertex="1">
          <mxGeometry x="120" y="428" width="80" height="30" as="geometry" />
        </mxCell>
        <mxCell id="c5Ohos4aBFcbHTDep5dI-17" value="&lt;b&gt;&lt;i&gt;&lt;font style=&quot;font-size: 15px;&quot;&gt;Payment Method&lt;/font&gt;&lt;/i&gt;&lt;/b&gt;" style="text;html=1;align=center;verticalAlign=middle;resizable=0;points=[];autosize=1;strokeColor=none;fillColor=none;" parent="1" vertex="1">
          <mxGeometry x="120" y="470" width="140" height="30" as="geometry" />
        </mxCell>
        <mxCell id="c5Ohos4aBFcbHTDep5dI-18" value="&lt;b&gt;&lt;i&gt;&lt;font style=&quot;font-size: 15px;&quot;&gt;Customer Age&lt;/font&gt;&lt;/i&gt;&lt;/b&gt;" style="text;html=1;align=center;verticalAlign=middle;resizable=0;points=[];autosize=1;strokeColor=none;fillColor=none;" parent="1" vertex="1">
          <mxGeometry x="115" y="510" width="130" height="30" as="geometry" />
        </mxCell>
        <mxCell id="c5Ohos4aBFcbHTDep5dI-19" value="&lt;span style=&quot;font-size: 15px;&quot;&gt;&lt;b&gt;Scrap the Raw&lt;/b&gt;&lt;/span&gt;&lt;div&gt;&lt;span style=&quot;font-size: 15px;&quot;&gt;&lt;b&gt;&amp;nbsp;Data&lt;/b&gt;&lt;/span&gt;&lt;/div&gt;" style="rounded=1;whiteSpace=wrap;html=1;" parent="1" vertex="1">
          <mxGeometry x="115" y="120" width="120" height="40" as="geometry" />
        </mxCell>
        <mxCell id="c5Ohos4aBFcbHTDep5dI-20" value="" style="endArrow=classic;html=1;rounded=0;exitX=1;exitY=0.5;exitDx=0;exitDy=0;" parent="1" source="c5Ohos4aBFcbHTDep5dI-2" edge="1">
          <mxGeometry width="50" height="50" relative="1" as="geometry">
            <mxPoint x="240" y="220" as="sourcePoint" />
            <mxPoint x="280" y="210" as="targetPoint" />
          </mxGeometry>
        </mxCell>
        <mxCell id="c5Ohos4aBFcbHTDep5dI-22" value="&lt;b&gt;&lt;i&gt;&lt;font style=&quot;font-size: 15px;&quot;&gt;Data Cleaning&lt;/font&gt;&lt;/i&gt;&lt;/b&gt;" style="rounded=0;whiteSpace=wrap;html=1;" parent="1" vertex="1">
          <mxGeometry x="280" y="180" width="120" height="60" as="geometry" />
        </mxCell>
        <mxCell id="c5Ohos4aBFcbHTDep5dI-47" value="" style="endArrow=none;html=1;rounded=0;entryX=0.5;entryY=1;entryDx=0;entryDy=0;" parent="1" target="c5Ohos4aBFcbHTDep5dI-22" edge="1">
          <mxGeometry width="50" height="50" relative="1" as="geometry">
            <mxPoint x="340" y="460" as="sourcePoint" />
            <mxPoint x="440" y="250" as="targetPoint" />
          </mxGeometry>
        </mxCell>
        <mxCell id="c5Ohos4aBFcbHTDep5dI-49" value="" style="endArrow=classic;html=1;rounded=0;" parent="1" edge="1">
          <mxGeometry width="50" height="50" relative="1" as="geometry">
            <mxPoint x="340" y="282.5" as="sourcePoint" />
            <mxPoint x="400" y="282.5" as="targetPoint" />
            <Array as="points">
              <mxPoint x="400" y="282.5" />
            </Array>
          </mxGeometry>
        </mxCell>
        <mxCell id="c5Ohos4aBFcbHTDep5dI-50" value="&lt;b&gt;&lt;i&gt;&lt;font style=&quot;font-size: 15px;&quot;&gt;Removing&amp;nbsp;&lt;/font&gt;&lt;/i&gt;&lt;/b&gt;&lt;div&gt;&lt;div style=&quot;text-align: left;&quot;&gt;&lt;b style=&quot;background-color: initial;&quot;&gt;&lt;i&gt;&lt;font style=&quot;font-size: 15px;&quot;&gt;NULL&amp;nbsp;&lt;/font&gt;&lt;/i&gt;&lt;/b&gt;&lt;/div&gt;&lt;div&gt;&lt;div style=&quot;text-align: left;&quot;&gt;&lt;b&gt;&lt;i&gt;&lt;font style=&quot;font-size: 15px;&quot;&gt;Values&lt;/font&gt;&lt;/i&gt;&lt;/b&gt;&lt;/div&gt;&lt;/div&gt;&lt;/div&gt;" style="text;html=1;align=center;verticalAlign=middle;resizable=0;points=[];autosize=1;strokeColor=none;fillColor=none;" parent="1" vertex="1">
          <mxGeometry x="400" y="260" width="100" height="70" as="geometry" />
        </mxCell>
        <mxCell id="c5Ohos4aBFcbHTDep5dI-51" value="" style="endArrow=classic;html=1;rounded=0;" parent="1" edge="1">
          <mxGeometry width="50" height="50" relative="1" as="geometry">
            <mxPoint x="340" y="340" as="sourcePoint" />
            <mxPoint x="400" y="340" as="targetPoint" />
            <Array as="points">
              <mxPoint x="400" y="340" />
            </Array>
          </mxGeometry>
        </mxCell>
        <mxCell id="c5Ohos4aBFcbHTDep5dI-52" value="&lt;h3 style=&quot;line-height: var(--jp-content-heading-line-height); margin-top: calc(0.5 * var(--jp-content-heading-margin-top)); margin-bottom: calc(0.5 * var(--jp-content-heading-margin-bottom)); color: rgba(0, 0, 0, 0.87); font-family: system-ui, -apple-system, blinkmacsystemfont, &amp;quot;Segoe UI&amp;quot;, helvetica, arial, sans-serif, &amp;quot;Apple Color Emoji&amp;quot;, &amp;quot;Segoe UI Emoji&amp;quot;, &amp;quot;Segoe UI Symbol&amp;quot;; text-align: start; text-wrap: wrap; background-color: rgb(255, 255, 255);&quot; id=&quot;Removing-duplicate-values:&quot;&gt;&lt;i style=&quot;&quot;&gt;&lt;font style=&quot;font-size: 15px;&quot;&gt;Removing duplicate&amp;nbsp;&lt;/font&gt;&lt;/i&gt;&lt;/h3&gt;&lt;h3 style=&quot;line-height: var(--jp-content-heading-line-height); margin-top: calc(0.5 * var(--jp-content-heading-margin-top)); margin-bottom: calc(0.5 * var(--jp-content-heading-margin-bottom)); color: rgba(0, 0, 0, 0.87); font-family: system-ui, -apple-system, blinkmacsystemfont, &amp;quot;Segoe UI&amp;quot;, helvetica, arial, sans-serif, &amp;quot;Apple Color Emoji&amp;quot;, &amp;quot;Segoe UI Emoji&amp;quot;, &amp;quot;Segoe UI Symbol&amp;quot;; text-align: start; text-wrap: wrap; background-color: rgb(255, 255, 255);&quot; id=&quot;Removing-duplicate-values:&quot;&gt;&lt;i style=&quot;&quot;&gt;&lt;font style=&quot;font-size: 15px;&quot;&gt;values&lt;/font&gt;&lt;/i&gt;&lt;/h3&gt;" style="text;html=1;align=center;verticalAlign=middle;resizable=0;points=[];autosize=1;strokeColor=none;fillColor=none;" parent="1" vertex="1">
          <mxGeometry x="365" y="330" width="170" height="50" as="geometry" />
        </mxCell>
        <mxCell id="c5Ohos4aBFcbHTDep5dI-54" value="" style="endArrow=classic;html=1;rounded=0;" parent="1" edge="1">
          <mxGeometry width="50" height="50" relative="1" as="geometry">
            <mxPoint x="340" y="404.5" as="sourcePoint" />
            <mxPoint x="400" y="404.5" as="targetPoint" />
            <Array as="points">
              <mxPoint x="400" y="404.5" />
            </Array>
          </mxGeometry>
        </mxCell>
        <mxCell id="c5Ohos4aBFcbHTDep5dI-55" value="&lt;b style=&quot;font-size: 15px;&quot;&gt;&lt;i&gt;&lt;font style=&quot;font-size: 15px;&quot;&gt;Categorical to&amp;nbsp;&lt;/font&gt;&lt;/i&gt;&lt;/b&gt;&lt;div style=&quot;&quot;&gt;&lt;font size=&quot;1&quot; style=&quot;&quot;&gt;&lt;b style=&quot;&quot;&gt;&lt;i style=&quot;font-size: 15px;&quot;&gt;Numeric data&lt;/i&gt;&lt;/b&gt;&lt;/font&gt;&lt;/div&gt;" style="text;html=1;align=center;verticalAlign=middle;resizable=0;points=[];autosize=1;strokeColor=none;fillColor=none;" parent="1" vertex="1">
          <mxGeometry x="400" y="390" width="130" height="50" as="geometry" />
        </mxCell>
        <mxCell id="c5Ohos4aBFcbHTDep5dI-56" value="" style="endArrow=classic;html=1;rounded=0;" parent="1" target="c5Ohos4aBFcbHTDep5dI-57" edge="1">
          <mxGeometry width="50" height="50" relative="1" as="geometry">
            <mxPoint x="400" y="209.5" as="sourcePoint" />
            <mxPoint x="460" y="209.5" as="targetPoint" />
            <Array as="points">
              <mxPoint x="460" y="209.5" />
            </Array>
          </mxGeometry>
        </mxCell>
        <mxCell id="c5Ohos4aBFcbHTDep5dI-57" value="&lt;b&gt;&lt;i&gt;&lt;font style=&quot;font-size: 15px;&quot;&gt;Data Preprocessing&lt;/font&gt;&lt;/i&gt;&lt;/b&gt;" style="rounded=0;whiteSpace=wrap;html=1;" parent="1" vertex="1">
          <mxGeometry x="500" y="180" width="120" height="60" as="geometry" />
        </mxCell>
        <mxCell id="c5Ohos4aBFcbHTDep5dI-58" value="" style="endArrow=none;html=1;rounded=0;entryX=0.5;entryY=1;entryDx=0;entryDy=0;" parent="1" target="c5Ohos4aBFcbHTDep5dI-57" edge="1">
          <mxGeometry width="50" height="50" relative="1" as="geometry">
            <mxPoint x="560" y="410" as="sourcePoint" />
            <mxPoint x="440" y="230" as="targetPoint" />
          </mxGeometry>
        </mxCell>
        <mxCell id="c5Ohos4aBFcbHTDep5dI-59" value="" style="endArrow=classic;html=1;rounded=0;" parent="1" edge="1">
          <mxGeometry width="50" height="50" relative="1" as="geometry">
            <mxPoint x="560" y="320" as="sourcePoint" />
            <mxPoint x="620" y="320" as="targetPoint" />
            <Array as="points">
              <mxPoint x="620" y="320" />
            </Array>
          </mxGeometry>
        </mxCell>
        <mxCell id="c5Ohos4aBFcbHTDep5dI-60" value="&lt;div&gt;&lt;span style=&quot;font-size: 15px;&quot;&gt;&lt;b&gt;&lt;i&gt;Label Encoding&lt;/i&gt;&lt;/b&gt;&lt;/span&gt;&lt;/div&gt;" style="text;html=1;align=center;verticalAlign=middle;resizable=0;points=[];autosize=1;strokeColor=none;fillColor=none;" parent="1" vertex="1">
          <mxGeometry x="610" y="300" width="140" height="30" as="geometry" />
        </mxCell>
        <mxCell id="c5Ohos4aBFcbHTDep5dI-61" value="" style="endArrow=classic;html=1;rounded=0;exitX=1;exitY=0.5;exitDx=0;exitDy=0;" parent="1" source="c5Ohos4aBFcbHTDep5dI-57" edge="1">
          <mxGeometry width="50" height="50" relative="1" as="geometry">
            <mxPoint x="670" y="235" as="sourcePoint" />
            <mxPoint x="760" y="210" as="targetPoint" />
          </mxGeometry>
        </mxCell>
        <mxCell id="c5Ohos4aBFcbHTDep5dI-62" value="" style="endArrow=classic;html=1;rounded=0;" parent="1" edge="1">
          <mxGeometry width="50" height="50" relative="1" as="geometry">
            <mxPoint x="760" y="210" as="sourcePoint" />
            <mxPoint x="760" y="560" as="targetPoint" />
          </mxGeometry>
        </mxCell>
        <mxCell id="c5Ohos4aBFcbHTDep5dI-64" value="" style="endArrow=classic;html=1;rounded=0;" parent="1" target="c5Ohos4aBFcbHTDep5dI-65" edge="1">
          <mxGeometry width="50" height="50" relative="1" as="geometry">
            <mxPoint x="760" y="560" as="sourcePoint" />
            <mxPoint x="640" y="560" as="targetPoint" />
          </mxGeometry>
        </mxCell>
        <mxCell id="c5Ohos4aBFcbHTDep5dI-65" value="&lt;b&gt;&lt;font style=&quot;font-size: 15px;&quot;&gt;&lt;i&gt;Data Clustering&lt;/i&gt;&lt;/font&gt;&lt;/b&gt;" style="rounded=0;whiteSpace=wrap;html=1;" parent="1" vertex="1">
          <mxGeometry x="535" y="530" width="120" height="60" as="geometry" />
        </mxCell>
        <mxCell id="c5Ohos4aBFcbHTDep5dI-67" value="" style="endArrow=classic;html=1;rounded=0;" parent="1" edge="1">
          <mxGeometry width="50" height="50" relative="1" as="geometry">
            <mxPoint x="600" y="590" as="sourcePoint" />
            <mxPoint x="600" y="640" as="targetPoint" />
          </mxGeometry>
        </mxCell>
        <mxCell id="c5Ohos4aBFcbHTDep5dI-68" value="&lt;b&gt;&lt;i&gt;&lt;font style=&quot;font-size: 15px;&quot;&gt;Data Labeling&lt;/font&gt;&lt;/i&gt;&lt;/b&gt;" style="rounded=0;whiteSpace=wrap;html=1;" parent="1" vertex="1">
          <mxGeometry x="535" y="640" width="120" height="60" as="geometry" />
        </mxCell>
        <mxCell id="c5Ohos4aBFcbHTDep5dI-69" value="" style="endArrow=classic;html=1;rounded=0;" parent="1" edge="1">
          <mxGeometry width="50" height="50" relative="1" as="geometry">
            <mxPoint x="600" y="700" as="sourcePoint" />
            <mxPoint x="600" y="760" as="targetPoint" />
          </mxGeometry>
        </mxCell>
        <mxCell id="c5Ohos4aBFcbHTDep5dI-70" value="&lt;b&gt;&lt;i&gt;&lt;font style=&quot;font-size: 15px;&quot;&gt;Data Splitting&lt;/font&gt;&lt;/i&gt;&lt;/b&gt;" style="text;html=1;align=center;verticalAlign=middle;resizable=0;points=[];autosize=1;strokeColor=none;fillColor=none;" parent="1" vertex="1">
          <mxGeometry x="540" y="758" width="120" height="30" as="geometry" />
        </mxCell>
        <mxCell id="c5Ohos4aBFcbHTDep5dI-73" value="" style="endArrow=classic;html=1;rounded=0;exitX=0.49;exitY=1.167;exitDx=0;exitDy=0;exitPerimeter=0;" parent="1" source="c5Ohos4aBFcbHTDep5dI-70" edge="1">
          <mxGeometry width="50" height="50" relative="1" as="geometry">
            <mxPoint x="390" y="620" as="sourcePoint" />
            <mxPoint x="530" y="840" as="targetPoint" />
          </mxGeometry>
        </mxCell>
        <mxCell id="c5Ohos4aBFcbHTDep5dI-75" value="" style="endArrow=classic;html=1;rounded=0;exitX=0.47;exitY=1.193;exitDx=0;exitDy=0;exitPerimeter=0;" parent="1" source="c5Ohos4aBFcbHTDep5dI-70" edge="1">
          <mxGeometry width="50" height="50" relative="1" as="geometry">
            <mxPoint x="600" y="800" as="sourcePoint" />
            <mxPoint x="660" y="840" as="targetPoint" />
          </mxGeometry>
        </mxCell>
        <mxCell id="c5Ohos4aBFcbHTDep5dI-77" value="&lt;span style=&quot;text-wrap: nowrap; font-size: 15px;&quot;&gt;&lt;b style=&quot;&quot;&gt;&lt;i&gt;Train&lt;/i&gt;&lt;/b&gt;&lt;/span&gt;&lt;div style=&quot;text-wrap: nowrap; font-size: 15px;&quot;&gt;&lt;b style=&quot;&quot;&gt;&lt;i&gt;set&lt;/i&gt;&lt;/b&gt;&lt;/div&gt;" style="rounded=0;whiteSpace=wrap;html=1;" parent="1" vertex="1">
          <mxGeometry x="450" y="850" width="120" height="60" as="geometry" />
        </mxCell>
        <mxCell id="c5Ohos4aBFcbHTDep5dI-78" value="&lt;span style=&quot;text-wrap: nowrap; font-size: 15px;&quot;&gt;&lt;b&gt;&lt;i&gt;Test&lt;/i&gt;&lt;/b&gt;&lt;/span&gt;&lt;div style=&quot;text-wrap: nowrap; font-size: 15px;&quot;&gt;&lt;b&gt;&lt;i&gt;set&lt;/i&gt;&lt;/b&gt;&lt;/div&gt;" style="rounded=0;whiteSpace=wrap;html=1;" parent="1" vertex="1">
          <mxGeometry x="620" y="850" width="120" height="60" as="geometry" />
        </mxCell>
        <mxCell id="c5Ohos4aBFcbHTDep5dI-79" value="&lt;b&gt;&lt;i&gt;&lt;font style=&quot;font-size: 15px;&quot;&gt;Model Training&lt;/font&gt;&lt;/i&gt;&lt;/b&gt;" style="rounded=1;whiteSpace=wrap;html=1;" parent="1" vertex="1">
          <mxGeometry x="280" y="960" width="120" height="60" as="geometry" />
        </mxCell>
        <mxCell id="c5Ohos4aBFcbHTDep5dI-80" value="" style="endArrow=classic;html=1;rounded=0;exitX=0;exitY=0.5;exitDx=0;exitDy=0;" parent="1" source="c5Ohos4aBFcbHTDep5dI-77" edge="1">
          <mxGeometry width="50" height="50" relative="1" as="geometry">
            <mxPoint x="315" y="890" as="sourcePoint" />
            <mxPoint x="340" y="880" as="targetPoint" />
          </mxGeometry>
        </mxCell>
        <mxCell id="c5Ohos4aBFcbHTDep5dI-81" value="" style="endArrow=classic;html=1;rounded=0;" parent="1" edge="1">
          <mxGeometry width="50" height="50" relative="1" as="geometry">
            <mxPoint x="340" y="880" as="sourcePoint" />
            <mxPoint x="340" y="958" as="targetPoint" />
          </mxGeometry>
        </mxCell>
        <mxCell id="c5Ohos4aBFcbHTDep5dI-82" value="&lt;b&gt;&lt;i&gt;&lt;font style=&quot;font-size: 15px;&quot;&gt;Model&lt;/font&gt;&lt;/i&gt;&lt;/b&gt;&lt;div&gt;&lt;b&gt;&lt;i&gt;&lt;font style=&quot;font-size: 15px;&quot;&gt;Testing&lt;/font&gt;&lt;/i&gt;&lt;/b&gt;&lt;/div&gt;" style="rounded=1;whiteSpace=wrap;html=1;" parent="1" vertex="1">
          <mxGeometry x="460" y="960" width="120" height="60" as="geometry" />
        </mxCell>
        <mxCell id="c5Ohos4aBFcbHTDep5dI-83" value="" style="endArrow=classic;html=1;rounded=0;exitX=1;exitY=0.5;exitDx=0;exitDy=0;entryX=0;entryY=0.5;entryDx=0;entryDy=0;" parent="1" source="c5Ohos4aBFcbHTDep5dI-79" target="c5Ohos4aBFcbHTDep5dI-82" edge="1">
          <mxGeometry width="50" height="50" relative="1" as="geometry">
            <mxPoint x="390" y="920" as="sourcePoint" />
            <mxPoint x="440" y="870" as="targetPoint" />
          </mxGeometry>
        </mxCell>
        <mxCell id="c5Ohos4aBFcbHTDep5dI-84" value="" style="endArrow=classic;html=1;rounded=0;exitX=0.5;exitY=1;exitDx=0;exitDy=0;" parent="1" source="c5Ohos4aBFcbHTDep5dI-78" edge="1">
          <mxGeometry width="50" height="50" relative="1" as="geometry">
            <mxPoint x="390" y="920" as="sourcePoint" />
            <mxPoint x="680" y="990" as="targetPoint" />
          </mxGeometry>
        </mxCell>
        <mxCell id="c5Ohos4aBFcbHTDep5dI-85" value="" style="endArrow=classic;html=1;rounded=0;entryX=1;entryY=0.5;entryDx=0;entryDy=0;" parent="1" target="c5Ohos4aBFcbHTDep5dI-82" edge="1">
          <mxGeometry width="50" height="50" relative="1" as="geometry">
            <mxPoint x="680" y="990" as="sourcePoint" />
            <mxPoint x="440" y="870" as="targetPoint" />
          </mxGeometry>
        </mxCell>
        <mxCell id="c5Ohos4aBFcbHTDep5dI-86" value="" style="endArrow=classic;html=1;rounded=0;exitX=0.5;exitY=1;exitDx=0;exitDy=0;" parent="1" source="c5Ohos4aBFcbHTDep5dI-82" edge="1">
          <mxGeometry width="50" height="50" relative="1" as="geometry">
            <mxPoint x="390" y="1080" as="sourcePoint" />
            <mxPoint x="520" y="1080" as="targetPoint" />
          </mxGeometry>
        </mxCell>
        <mxCell id="c5Ohos4aBFcbHTDep5dI-87" value="&lt;b&gt;&lt;i&gt;&lt;font style=&quot;font-size: 15px;&quot;&gt;Model&lt;/font&gt;&lt;/i&gt;&lt;/b&gt;" style="rounded=1;whiteSpace=wrap;html=1;" parent="1" vertex="1">
          <mxGeometry x="460" y="1080" width="120" height="60" as="geometry" />
        </mxCell>
        <mxCell id="c5Ohos4aBFcbHTDep5dI-88" value="" style="endArrow=classic;html=1;rounded=0;exitX=0.5;exitY=1;exitDx=0;exitDy=0;" parent="1" source="c5Ohos4aBFcbHTDep5dI-87" edge="1">
          <mxGeometry width="50" height="50" relative="1" as="geometry">
            <mxPoint x="365" y="1140" as="sourcePoint" />
            <mxPoint x="520" y="1200" as="targetPoint" />
          </mxGeometry>
        </mxCell>
        <mxCell id="c5Ohos4aBFcbHTDep5dI-100" value="&lt;b style=&quot;font-size: 15px;&quot;&gt;&lt;i&gt;&lt;font style=&quot;font-size: 15px;&quot;&gt;Predict&lt;/font&gt;&lt;/i&gt;&lt;/b&gt;&lt;div&gt;&lt;b style=&quot;font-size: 15px;&quot;&gt;&lt;i&gt;&lt;font style=&quot;font-size: 15px;&quot;&gt;CHURN&lt;/font&gt;&lt;/i&gt;&lt;/b&gt;&lt;/div&gt;" style="rounded=0;whiteSpace=wrap;html=1;" parent="1" vertex="1">
          <mxGeometry x="460" y="1200" width="130" height="60" as="geometry" />
        </mxCell>
        <mxCell id="c5Ohos4aBFcbHTDep5dI-101" value="&lt;b&gt;&lt;i&gt;&lt;font style=&quot;font-size: 15px;&quot;&gt;Display On the Webpage&lt;/font&gt;&lt;/i&gt;&lt;/b&gt;" style="rounded=0;whiteSpace=wrap;html=1;" parent="1" vertex="1">
          <mxGeometry x="470" y="1300" width="120" height="60" as="geometry" />
        </mxCell>
        <mxCell id="c5Ohos4aBFcbHTDep5dI-102" value="" style="endArrow=classic;html=1;rounded=0;exitX=0.5;exitY=1;exitDx=0;exitDy=0;entryX=0.447;entryY=-0.023;entryDx=0;entryDy=0;entryPerimeter=0;" parent="1" source="c5Ohos4aBFcbHTDep5dI-100" target="c5Ohos4aBFcbHTDep5dI-101" edge="1">
          <mxGeometry width="50" height="50" relative="1" as="geometry">
            <mxPoint x="390" y="1190" as="sourcePoint" />
            <mxPoint x="530" y="1280" as="targetPoint" />
          </mxGeometry>
        </mxCell>
        <mxCell id="eDugz8rRLbKDEBV2RkkK-4" value="&lt;b&gt;&lt;font style=&quot;font-size: 15px;&quot;&gt;Returns&lt;/font&gt;&lt;/b&gt;" style="text;strokeColor=none;align=center;fillColor=none;html=1;verticalAlign=middle;whiteSpace=wrap;rounded=0;" parent="1" vertex="1">
          <mxGeometry x="120" y="545" width="80" height="30" as="geometry" />
        </mxCell>
        <mxCell id="eDugz8rRLbKDEBV2RkkK-5" value="&lt;b&gt;&lt;font style=&quot;font-size: 14px;&quot;&gt;Customer Name&lt;/font&gt;&lt;/b&gt;" style="text;strokeColor=none;align=center;fillColor=none;html=1;verticalAlign=middle;whiteSpace=wrap;rounded=0;" parent="1" vertex="1">
          <mxGeometry x="105" y="585" width="155" height="30" as="geometry" />
        </mxCell>
        <mxCell id="eDugz8rRLbKDEBV2RkkK-6" value="&lt;b&gt;&lt;font style=&quot;font-size: 14px;&quot;&gt;Age&lt;/font&gt;&lt;/b&gt;" style="text;strokeColor=none;align=center;fillColor=none;html=1;verticalAlign=middle;whiteSpace=wrap;rounded=0;" parent="1" vertex="1">
          <mxGeometry x="115" y="620" width="60" height="30" as="geometry" />
        </mxCell>
        <mxCell id="eDugz8rRLbKDEBV2RkkK-8" value="&lt;b&gt;&lt;font style=&quot;font-size: 14px;&quot;&gt;Gender&lt;/font&gt;&lt;/b&gt;" style="text;strokeColor=none;align=center;fillColor=none;html=1;verticalAlign=middle;whiteSpace=wrap;rounded=0;" parent="1" vertex="1">
          <mxGeometry x="120" y="660" width="60" height="30" as="geometry" />
        </mxCell>
        <mxCell id="eDugz8rRLbKDEBV2RkkK-9" value="&lt;b&gt;&lt;font style=&quot;font-size: 14px;&quot;&gt;Churn&lt;/font&gt;&lt;/b&gt;" style="text;strokeColor=none;align=center;fillColor=none;html=1;verticalAlign=middle;whiteSpace=wrap;rounded=0;" parent="1" vertex="1">
          <mxGeometry x="120" y="700" width="60" height="30" as="geometry" />
        </mxCell>
        <mxCell id="eDugz8rRLbKDEBV2RkkK-12" value="" style="endArrow=classic;html=1;rounded=0;" parent="1" edge="1">
          <mxGeometry width="50" height="50" relative="1" as="geometry">
            <mxPoint x="50" y="560" as="sourcePoint" />
            <mxPoint x="110" y="560" as="targetPoint" />
          </mxGeometry>
        </mxCell>
        <mxCell id="eDugz8rRLbKDEBV2RkkK-13" value="" style="endArrow=classic;html=1;rounded=0;" parent="1" edge="1">
          <mxGeometry width="50" height="50" relative="1" as="geometry">
            <mxPoint x="50" y="600" as="sourcePoint" />
            <mxPoint x="110" y="600" as="targetPoint" />
          </mxGeometry>
        </mxCell>
        <mxCell id="eDugz8rRLbKDEBV2RkkK-14" value="" style="endArrow=classic;html=1;rounded=0;" parent="1" edge="1">
          <mxGeometry width="50" height="50" relative="1" as="geometry">
            <mxPoint x="50" y="634.5" as="sourcePoint" />
            <mxPoint x="110" y="634.5" as="targetPoint" />
          </mxGeometry>
        </mxCell>
        <mxCell id="eDugz8rRLbKDEBV2RkkK-15" value="" style="endArrow=classic;html=1;rounded=0;" parent="1" edge="1">
          <mxGeometry width="50" height="50" relative="1" as="geometry">
            <mxPoint x="50" y="674.5" as="sourcePoint" />
            <mxPoint x="110" y="674.5" as="targetPoint" />
          </mxGeometry>
        </mxCell>
        <mxCell id="eDugz8rRLbKDEBV2RkkK-16" value="" style="endArrow=classic;html=1;rounded=0;" parent="1" edge="1">
          <mxGeometry width="50" height="50" relative="1" as="geometry">
            <mxPoint x="50" y="714.5" as="sourcePoint" />
            <mxPoint x="110" y="714.5" as="targetPoint" />
          </mxGeometry>
        </mxCell>
        <mxCell id="eDugz8rRLbKDEBV2RkkK-17" value="&lt;span style=&quot;font-size: 14px;&quot;&gt;&lt;b&gt;Creating A New Column (&lt;/b&gt;Total Purchase&lt;b&gt;)&lt;/b&gt;&lt;/span&gt;" style="text;strokeColor=none;align=center;fillColor=none;html=1;verticalAlign=middle;whiteSpace=wrap;rounded=0;" parent="1" vertex="1">
          <mxGeometry x="400" y="440" width="170" height="40" as="geometry" />
        </mxCell>
        <mxCell id="eDugz8rRLbKDEBV2RkkK-18" value="" style="endArrow=classic;html=1;rounded=0;entryX=0;entryY=0.5;entryDx=0;entryDy=0;" parent="1" target="eDugz8rRLbKDEBV2RkkK-17" edge="1">
          <mxGeometry width="50" height="50" relative="1" as="geometry">
            <mxPoint x="340" y="460" as="sourcePoint" />
            <mxPoint x="440" y="430" as="targetPoint" />
          </mxGeometry>
        </mxCell>
        <mxCell id="eDugz8rRLbKDEBV2RkkK-19" value="&lt;b&gt;&lt;font style=&quot;font-size: 15px;&quot;&gt;Scalling&lt;/font&gt;&lt;/b&gt;" style="text;strokeColor=none;align=center;fillColor=none;html=1;verticalAlign=middle;whiteSpace=wrap;rounded=0;" parent="1" vertex="1">
          <mxGeometry x="630" y="350" width="60" height="30" as="geometry" />
        </mxCell>
        <mxCell id="eDugz8rRLbKDEBV2RkkK-20" value="&lt;span style=&quot;font-size: 14px;&quot;&gt;&lt;b&gt;Dealing With Bias Vlaues&lt;/b&gt;&lt;/span&gt;" style="text;strokeColor=none;align=center;fillColor=none;html=1;verticalAlign=middle;whiteSpace=wrap;rounded=0;" parent="1" vertex="1">
          <mxGeometry x="630" y="400" width="90" height="30" as="geometry" />
        </mxCell>
        <mxCell id="eDugz8rRLbKDEBV2RkkK-21" value="" style="endArrow=none;html=1;rounded=0;entryX=0.5;entryY=1;entryDx=0;entryDy=0;" parent="1" edge="1">
          <mxGeometry width="50" height="50" relative="1" as="geometry">
            <mxPoint x="560" y="410" as="sourcePoint" />
            <mxPoint x="560" y="280" as="targetPoint" />
          </mxGeometry>
        </mxCell>
        <mxCell id="eDugz8rRLbKDEBV2RkkK-22" value="" style="endArrow=classic;html=1;rounded=0;" parent="1" edge="1">
          <mxGeometry width="50" height="50" relative="1" as="geometry">
            <mxPoint x="560" y="360" as="sourcePoint" />
            <mxPoint x="620" y="360" as="targetPoint" />
            <Array as="points">
              <mxPoint x="620" y="360" />
            </Array>
          </mxGeometry>
        </mxCell>
        <mxCell id="eDugz8rRLbKDEBV2RkkK-24" value="" style="endArrow=classic;html=1;rounded=0;" parent="1" edge="1">
          <mxGeometry width="50" height="50" relative="1" as="geometry">
            <mxPoint x="560" y="410" as="sourcePoint" />
            <mxPoint x="620" y="410" as="targetPoint" />
            <Array as="points">
              <mxPoint x="620" y="410" />
            </Array>
          </mxGeometry>
        </mxCell>
        <mxCell id="eDugz8rRLbKDEBV2RkkK-25" value="&lt;b&gt;&lt;font style=&quot;font-size: 30px;&quot;&gt;EDA&lt;/font&gt;&lt;/b&gt;" style="text;strokeColor=none;align=center;fillColor=none;html=1;verticalAlign=middle;whiteSpace=wrap;rounded=0;" parent="1" vertex="1">
          <mxGeometry x="420" y="110" width="130" height="30" as="geometry" />
        </mxCell>
      </root>
    </mxGraphModel>
  </diagram>
</mxfile>
